<svg xmlns="http://www.w3.org/2000/svg" xmlns:xlink="http://www.w3.org/1999/xlink" width="190" height="190"><defs><path id="c" d="M0 .593h61.803V46H0z"/><path id="e" d="M.085.24h49.633v28.015H.085z"/><filter id="a" width="180.8%" height="180.8%" x="-40.4%" y="-28.8%" filterUnits="objectBoundingBox"><feOffset dy="15" in="SourceAlpha" result="shadowOffsetOuter1"/><feGaussianBlur in="shadowOffsetOuter1" result="shadowBlurOuter1" stdDeviation="15"/><feColorMatrix in="shadowBlurOuter1" values="0 0 0 0 0 0 0 0 0 0 0 0 0 0 0 0 0 0 0.2 0"/></filter><rect id="b" width="130" height="130" y=".5" rx="20"/></defs><g fill="none" fill-rule="evenodd"><g transform="translate(30 14.5)"><use fill="#000" filter="url(#a)" xlink:href="#b"/><use fill="#FFF" xlink:href="#b"/></g><path fill="#FE8431" d="M100 94a4 4 0 11-8.001-.001A4 4 0 01100 94"/><g transform="translate(65 70)"><mask id="d" fill="#fff"><use xlink:href="#c"/></mask><path fill="#3A69F1" d="M53.854 46H17.196C7.712 46 0 38.25 0 28.725V4.155A3.554 3.554 0 013.546.594h54.71a3.554 3.554 0 013.547 3.563v28.131H54.71V7.718H7.092v21.007c0 5.596 4.533 10.15 10.104 10.15h36.658V46z" mask="url(#d)"/></g><g transform="translate(71 39)"><mask id="f" fill="#fff"><use xlink:href="#e"/></mask><path fill="#3A69F1" d="M49.718 28.255H43.62V25.19c0-10.377-8.398-18.82-18.718-18.82S6.184 14.813 6.184 25.19v3.065H.085V25.19C.085 11.433 11.22.239 24.902.239s24.816 11.194 24.816 24.95v3.066z" mask="url(#f)" opacity=".7"/></g></g></svg>