<svg xmlns="http://www.w3.org/2000/svg" xmlns:xlink="http://www.w3.org/1999/xlink" width="118" height="152"><defs><path id="a" d="M0 .07h35.898v42.994H0z"/></defs><g fill="none" fill-rule="evenodd"><g opacity=".4"><path fill="#3A69F1" d="M38.479 84.603c-.169-.556-.277-.956-.411-1.347C32.858 68.1 27.649 52.941 22.425 37.79c-.482-1.398-.77-2.79-.318-4.238.78-2.5 2.937-4.174 5.435-4.253 2.482-.079 4.707 1.361 5.649 3.772 2.1 5.375 4.157 10.769 6.234 16.153.893 2.318 1.794 4.633 2.697 6.962 1.54-.509 2.964-1.013 4.409-1.45 2.578-.778 4.931-.27 7.005 1.419.508.413.885.388 1.455.163a30.47 30.47 0 013.541-1.162c2.852-.737 5.408-.29 7.367 2.087 1.138-.406 2.206-.882 3.322-1.167 3.508-.899 5.989.24 7.942 3.282 4.173 6.499 6.75 13.699 9.134 20.966 1.264 3.851 1.205 7.93 1.21 11.952.004 2.81-.192 5.62-.203 8.43-.003.986.166 2.008.458 2.95.564 1.822 1.271 3.598 1.97 5.533L57.888 120.83c-.604-1.661-1.261-3.27-1.767-4.926-.35-1.15-1.013-1.93-1.97-2.617-3.41-2.45-6.854-4.869-10.138-7.485-4.023-3.204-8.448-5.617-13.142-7.655-5.845-2.538-11.611-5.259-17.39-7.946-.756-.351-1.473-.885-2.06-1.48-1.757-1.783-2.1-3.847-1.092-5.887 1.037-2.1 3.107-3.316 5.45-3.04 1.464.174 2.908.526 4.35.847 5.657 1.258 11.31 2.538 16.966 3.8.402.09.821.099 1.383.162"/><g transform="rotate(-80 112.871 38.862)"><mask id="b" fill="#fff"><use xlink:href="#a"/></mask><path fill="#3A69F1" d="M31.373 31.866c.006-1.41-1.076-2.536-2.46-2.558-1.421-.023-2.584 1.153-2.56 2.59.021 1.377 1.173 2.518 2.534 2.51 1.37-.008 2.48-1.141 2.486-2.542M19.78 43.064c-1.867-.193-3.082-1.124-3.959-2.663-3.716-6.523-7.453-13.034-11.183-19.549-1.295-2.26-2.603-4.514-3.885-6.783-1.434-2.537-.799-4.88 1.727-6.358C6.525 5.342 10.577 2.988 14.63.634c1.678-.973 2.69-.708 3.648.966 5.705 9.957 11.405 19.915 17.102 29.876.9 1.575.643 2.611-.897 3.513a1384.066 1384.066 0 01-12.46 7.237c-.685.391-1.493.564-2.243.838" mask="url(#b)"/></g></g><path d="M45.056 40.489h10.251v-5.67H45.056zM25.818 21.252h5.67V11h-5.67zM2 40.489h10.252v-5.67H2zM42.255 28.06l-4.01-4.009 6.856-6.854 4.008 4.009zm-27.203 0l-6.854-6.854 4.008-4.009 6.855 6.854z" fill="#3A69F1" opacity=".8"/></g></svg>