<svg xmlns="http://www.w3.org/2000/svg" width="159" height="25" viewBox="0 0 159 25"><path fill="#26323F" d="M15.503 4.596H4.613v5.775h9.273v4.092H4.613V24H.026V.504h15.477v4.092zM34.973 24H19.496V.504h15.477v4.092h-10.89v5.511h9.273v4.092h-9.273v5.709h10.89V24zm22.638 0h-4.785l-1.386-4.158h-8.349L41.672 24h-4.785L45.434.504h3.597L57.611 24zm-7.392-8.019l-2.871-8.547-2.97 8.547h5.841zm25.41-11.385h-6.138V24h-4.587V4.596h-6.138V.504h16.863v4.092zm20.658 11.352c0 4.983-3.828 8.25-8.646 8.25-4.818 0-8.646-3.267-8.646-8.25V.504h4.587v15.279c0 2.706 1.584 4.323 4.059 4.323s4.092-1.617 4.092-4.323V.504h4.554v15.444zM119.189 24h-5.313l-4.587-9.372h-3.3V24h-4.587V.504h9.207c4.785 0 7.623 3.267 7.623 7.194 0 3.3-2.013 5.346-4.29 6.171L119.189 24zm-5.544-16.302c0-1.815-1.32-3.102-3.333-3.102h-4.323V10.8h4.323c2.013 0 3.333-1.287 3.333-3.102zM138.461 24h-15.477V.504h15.477v4.092h-10.89v5.511h9.273v4.092h-9.273v5.709h10.89V24zm19.668-6.93c0 4.554-3.795 7.128-8.712 7.128-3.564 0-6.27-.759-8.58-3.102l2.97-2.97c1.485 1.485 3.498 1.98 5.676 1.98 2.706 0 4.158-1.023 4.158-2.904 0-.825-.231-1.518-.726-1.98-.462-.429-.99-.66-2.079-.825l-2.838-.396c-2.013-.297-3.498-.924-4.554-1.947-1.122-1.122-1.683-2.64-1.683-4.62 0-4.191 3.102-7.128 8.184-7.128 3.234 0 5.577.792 7.59 2.739l-2.904 2.871c-1.485-1.419-3.267-1.617-4.818-1.617-2.442 0-3.63 1.353-3.63 2.97 0 .594.198 1.221.693 1.683.462.429 1.221.792 2.178.924l2.772.396c2.145.297 3.498.891 4.488 1.815 1.254 1.188 1.815 2.904 1.815 4.983z"/></svg>