<?xml version="1.0" encoding="utf-8"?><svg width="112" height="80" viewBox="0 0 112 80" xmlns="http://www.w3.org/2000/svg" xmlns:xlink="http://www.w3.org/1999/xlink"><svg width="32" height="32" viewBox="0 0 32 32" id="btn_fb"><g fill="none" fill-rule="evenodd"><circle fill="#38599E" cx="16" cy="16" r="16"/><path d="M20 8v3h-2c-.6 0-1 .4-1 1v2h3v3h-3v7h-3v-7h-2v-3h2v-2.5C14 9.6 15.6 8 17.5 8H20z" fill="#FFF"/></g></svg><svg width="32" height="32" viewBox="0 0 32 32" id="btn_tw" x="32"><g fill="none" fill-rule="evenodd"><circle fill="#45B0E4" cx="16" cy="16" r="16"/><path d="M22.992 13.395c-.128 5.894-3.844 9.995-9.482 10.251-2.307.128-3.972-.64-5.51-1.538 1.666.257 3.844-.384 4.997-1.41-1.665-.127-2.69-1.024-3.203-2.434.513.128 1.025 0 1.41 0-1.538-.512-2.563-1.41-2.691-3.46.384.257.897.385 1.41.385-1.154-.64-1.923-3.076-1.026-4.613 1.666 1.794 3.716 3.331 7.048 3.588-.897-3.588 3.972-5.51 5.894-3.076.897-.128 1.538-.512 2.178-.768-.256.896-.768 1.409-1.41 1.922.642-.129 1.282-.257 1.795-.513-.128.64-.769 1.153-1.41 1.666z" fill="#FFF"/></g></svg><svg width="24" height="24" viewBox="0 0 24 24" id="ico_arrow_01" y="32"><g transform="translate(1 1)" fill="none" fill-rule="evenodd"><circle stroke="#AFBCCA" cx="11" cy="11" r="11"/><path fill="#AFBCCA" fill-rule="nonzero" d="M11.846 6.205l-.994.994 3.088 3.096H5.36v1.41h8.581l-3.088 3.096.994.994L16.641 11z"/></g></svg><svg width="24" height="24" viewBox="0 0 24 24" id="ico_feature01" x="24" y="32"><path d="M9 16.2L4.8 12l-1.4 1.4L9 19 21 7l-1.4-1.4z" fill="#AFBCCA"/></svg><svg width="24" height="24" viewBox="0 0 24 24" id="ico_feature02" x="64"><g fill="#AFBCCA" fill-rule="evenodd"><path d="M11.99 2C6.47 2 2 6.48 2 12s4.47 10 9.99 10C17.52 22 22 17.52 22 12S17.52 2 11.99 2zM12 20c-4.42 0-8-3.58-8-8s3.58-8 8-8 8 3.58 8 8-3.58 8-8 8z"/><path d="M12.5 7H11v6l5.25 3.15.75-1.23-4.5-2.67z"/></g></svg><svg width="24" height="24" viewBox="0 0 24 24" id="ico_feature03" x="88" y="24"><path d="M19 4h-1V2h-2v2H8V2H6v2H5c-1.11 0-1.99.9-1.99 2L3 20a2 2 0 0 0 2 2h14c1.1 0 2-.9 2-2V6c0-1.1-.9-2-2-2zm0 16H5V9h14v11zM7 11h5v5H7v-5z" fill="#AFBCCA" fill-rule="evenodd"/></svg><svg width="24" height="24" viewBox="0 0 24 24" id="ico_feature04" y="56"><g fill="#AFBCCA" fill-rule="evenodd"><path d="M12.078 11.877v4.767s-1.28 0-2.56 1.271c-.714.71-1.03 1.419-1.17 1.907H2.47a1.91 1.91 0 0 1-1.91-1.907L.57 2.661A1.91 1.91 0 0 1 2.48.754h7.678l5.759 5.72v1.272s-1.28 0-2.56 1.27l-1.28 1.272v1.589-1.589H4.4v1.907h7.679v-.318zm0 4.131v-1.906h-7.68v1.906h7.68zm-2.88-8.58h5.28l-5.28-5.244v5.244z"/><path d="M16.557 15.01a2.994 2.994 0 0 0 3.006-2.997 2.994 2.994 0 0 0-3.006-2.996 3.003 3.003 0 0 0-3.017 2.996 3.003 3.003 0 0 0 3.017 2.997zm0 1.997c-2.343 0-7.039 1.169-7.039 3.496V23h14.078v-2.497c0-2.327-4.696-3.496-7.04-3.496z"/></g></svg><svg width="24" height="24" viewBox="0 0 24 24" id="ico_feature05" x="24" y="56"><path d="M21 4H3c-1.1 0-2 .9-2 2v12c0 1.1.9 2 2 2h5v2h8v-2h5c1.1 0 1.99-.9 1.99-2L23 6c0-1.1-.9-2-2-2zm0 14H3V6h18v12zm-2-9H8v2h11V9zm0 4H8v2h11v-2zM7 9H5v2h2V9zm0 4H5v2h2v-2z" fill="#AFBCCA" fill-rule="evenodd"/></svg><svg width="24" height="24" viewBox="0 0 24 24" id="ico_feature06" x="48" y="56"><path d="M12 22l-1.45-1.295C5.4 16.125 2 13.103 2 9.395 2 6.374 4.42 4 7.5 4c1.74 0 3.41.795 4.5 2.05A6.037 6.037 0 0 1 16.5 4C19.58 4 22 6.374 22 9.395c0 3.708-3.4 6.73-8.55 11.32L12 22z" fill="#AFBCCA" fill-rule="evenodd"/></svg><svg width="24" height="24" viewBox="0 0 24 24" id="ico_feature07" x="88"><path d="M20 4H4c-1.1 0-1.99.9-1.99 2L2 18c0 1.1.9 2 2 2h16c1.1 0 2-.9 2-2V6c0-1.1-.9-2-2-2zm0 14H4V8l8 5 8-5v10zm-8-7L4 6h16l-8 5z" fill="#AFBCCA" fill-rule="evenodd"/></svg><svg width="24" height="24" viewBox="0 0 24 24" id="ico_feature08" x="64" y="24"><path d="M12 1a9 9 0 0 0-9 9v7c0 1.66 1.34 3 3 3h3v-8H5v-2c0-3.87 3.13-7 7-7s7 3.13 7 7v2h-4v8h4v1h-7v2h6c1.66 0 3-1.34 3-3V10a9 9 0 0 0-9-9z" fill="#AFBCCA"/></svg></svg>