<svg xmlns="http://www.w3.org/2000/svg" xmlns:xlink="http://www.w3.org/1999/xlink" width="211" height="35" viewBox="0 0 211 35"><defs><path id="a" d="M.303.014h39.639v32.661H.302z"/><path id="c" d="M0 35.879h210.108V.759H0z"/></defs><g fill="none" fill-rule="evenodd"><path fill="#61ACC1" d="M101 0L53 29.848V35l48-29.848z"/><path fill="#1D3C51" d="M82 21.796V33h5V19z"/><g transform="translate(0 -1)"><path fill="#1D3C51" d="M146.03 7.555V3.067h-28.54c-.477 1.776-1.23 3.47-2.688 5.644-.751 1.12-1.89 2.454-2.98 3.496v5.863c1.174-.877 3.777-2.494 6.447-6.22.977-1.363 1.77-2.877 2.392-4.295h25.368zm-21.504 8.629v4.488h23.807c-1.002 2.376-2.488 4.313-4.59 5.822-4.04 2.898-10.064 4.428-18.502 4.428l-6.907.052v4.55h6.907c12.192 0 27.55-2.726 28.878-19.34h-29.593z"/><g transform="translate(170.166 3.054)"><mask id="b" fill="#fff"><use xlink:href="#a"/></mask><path fill="#1D3C51" d="M39.942 27.693c-3.449-1.621-6.217-3.596-8.718-6.144 3.018-2.871 5.743-6.698 7.394-12.248C39.664 5.786 39.78 1.927 39.76.014H1.88v4.488h33.215c-.139 1.087-.351 2.226-.672 3.303-2.196 7.38-6.635 11.06-11.106 13.937C15.38 26.85 3.24 27.757.303 27.87v4.701c3.04-.096 16.203-.843 25.25-6.666a50.417 50.417 0 002.053-1.39c3.343 3.592 7.395 6.303 12.336 8.16v-4.982z" mask="url(#b)"/></g><mask id="d" fill="#fff"><use xlink:href="#c"/></mask><path fill="#1D3C51" d="M0 8.594h42.669V4.106H0zm0 26.94h42.669v-4.488H0zm0-13.47h37.853v-4.488H0z" mask="url(#d)"/></g><path fill="#1D3C51" d="M150 12h5V3h-5zm7 0h5V3h-5z"/></g></svg>