<svg xmlns="http://www.w3.org/2000/svg" width="440" height="350" viewBox="0 0 440 350"><g fill="none" fill-rule="evenodd"><path stroke="#183A4F" d="M106.3 76.19c1.153-.633 2.022-1.094 2.532-1.336.995-.474 2.623-.951 3.674-.437 1.05.512 5.085 2.592 5.085 2.592 1.626 1.03 1.972 2.975 1.979 4.713.043 12.205-.032 58.987-.032 58.987l-7.617 4.682M74.136 114.4l1.157 50.457-6.94 4.192-6.941-3.759-.292-57.188s-.647-5.033 2.603-7.153c.529-.345 8.804-5.238 18.164-10.713"/><path stroke="#183A4F" d="M75.003 160.374l8.965 5.206 14.17-7.81 1.157-6.362 2.313 4.05 10.627-6-.315-56.639m-36.338 70.157v96.583l8.098 4.049 11.573-7.307-.58-80.978"/><path stroke="#183A4F" d="M94.819 248.493l6.5 3.547 10.122-6.361-.726-94.851M91.35 176.845l9.253-5.5m-24.302 88.647v6.497c0 1.197.849 2.667 1.887 3.265l14.3 8.236c1.037.598 2.713.562 3.725-.08l5.435-3.45c1.011-.642 1.87-2.146 1.908-3.343l.149-4.611c.039-1.198-.791-2.644-1.843-3.215l-9.83-5.333m16.738-10.491v2.418c0 .798.568 1.774 1.263 2.168l7.375 4.186c.695.394 1.262 1.37 1.262 2.168v4.327c0 .798-.56 1.785-1.248 2.193l-6.757 4.012c-.687.408-1.827.437-2.533.065l-4.21-2.216m-8.675-17.929v10.989m-30.944-93.402v5.784l-2.892 1.446v7.23l5.462 3.38c.377.234.85.242 1.234.023l5.45-3.55-.29-15.18"/><path stroke="#183A4F" d="M117.802 141.866v4.916l3.181 1.157.29 8.383-10.55 6.14M78.862 94.917l-.28 16.188 6.073-3.76-1.843 6.759 9.832 5.205m10.983-34.462l5.102 8.583-4.916 3.035 4.447 4.914-8.206 18.973M82.726 90.896l14.544 31.883 3.327-34.94m-9.052 4.194l-4.34 7.944m8.572-9.434l4.386 3.896"/><path stroke="#183A4F" d="M89.535 94.976l5.24 1.876 2.496-4.438m-5.705 3.838l.21 13.803M96.8 93.671l1.975 11.773m7.945-30.948c-.29 9.898-8.552 17.686-18.45 17.395-9.898-.293-17.685-8.553-17.394-18.45.292-9.899 8.552-17.687 18.45-17.395 9.898.293 17.686 8.553 17.394 18.45z"/><path stroke="#183A4F" stroke-linejoin="round" d="M107.021 74.116c-2.448-6.27-10.302-7.99-10.543-8.742-1.504 6.404-17.317 16.353-17.317 16.353s-4.437-2.648-4.884 2.691"/><path stroke="#183A4F" d="M86.873 77.982l4.968-2.08m2.448 9.538l3.26-1.248-1.563-9.988 3.768-1.625"/><path fill="#231815" d="M91.188 81.277a1.24 1.24 0 11-2.478-.074 1.24 1.24 0 012.478.074m10.778-3.897a1.24 1.24 0 11-2.48-.076 1.24 1.24 0 012.48.075"/><path stroke="#183A4F" d="M98.78 131.325c0 1.27-.456 2.3-1.016 2.3s-1.015-1.03-1.015-2.3c0-1.271.455-2.302 1.016-2.302.56 0 1.014 1.03 1.014 2.302zM65.545 154.88c0 1.27-.455 2.302-1.015 2.302-.561 0-1.015-1.031-1.015-2.302 0-1.271.454-2.301 1.015-2.301.56 0 1.015 1.03 1.015 2.3zm0 6.633c0 1.271-.455 2.301-1.015 2.301-.561 0-1.015-1.03-1.015-2.3 0-1.272.454-2.303 1.015-2.303.56 0 1.015 1.031 1.015 2.302z"/><path stroke="#183A4F" stroke-linecap="round" d="M319.699 300.751l40.387-23.317c5.853-3.38 10.643-12.533 10.643-20.337v-152.58c0-7.806-4.79-11.427-10.643-8.047l-58.541 32.928c-5.856 3.38-10.644 12.532-10.644 20.337v153.451c0 7.805 4.788 11.426 10.644 8.046l8.38-4.838 9.774-5.643z"/><path stroke="#183A4F" d="M298.553 312.5c-20.997 6.65-19.943-10.248-19.943-10.248v-155.59c0-7.805 3.044-15.965 10.644-21.36L353.486 88.7s17.53-7.62 17.273 15.368"/><path stroke="#183A4F" stroke-linecap="round" d="M319.91 291.146c16.905-9.813 39.872-23.495 39.872-23.495s4.097-1.798 4.097-10.705V107.875s.115-6.996-5.12-4.123c-4.073 2.235-9.219 5.12-9.219 5.12s-4.097 2.63-4.097 5.703v4.566s-.009 3.12-2.048 4.395c-3.13 1.958-23.556 14.04-23.556 14.04s-5.12 3.073-5.12-3.072c0-2.048-2.05-3.072-4.098-2.048l-7.17 4.097s-6.145 3.69-6.145 11.266v147.485s0 8.194 6.145 5.12c1.271-.633 3.5-1.86 6.36-3.476l10.1-5.802z"/><path stroke="#183A4F" d="M278.478 149.891s6.828 5.387 11.949 3.339m-11.949 2.806s6.828 5.387 11.949 3.34m-11.949 131.426s6.974 5.388 12.095 3.34m-12.095 2.806s6.974 5.388 12.095 3.339m-6.081-118.598h-.062c-.72 0-1.303-.583-1.303-1.303v-8.637c0-.72.583-1.302 1.302-1.302h.063c.72 0 1.303.583 1.303 1.303v8.636c0 .72-.584 1.303-1.303 1.303zm0 16.721h-.062c-.72 0-1.303-.583-1.303-1.303v-8.636c0-.72.583-1.303 1.303-1.303h.062c.72 0 1.303.583 1.303 1.303v8.636c0 .72-.584 1.303-1.303 1.303zm.001 16.72h-.063c-.72 0-1.303-.583-1.303-1.303v-8.637c0-.719.583-1.302 1.302-1.302h.063c.72 0 1.303.583 1.303 1.303v8.637c0 .72-.583 1.302-1.302 1.302z"/><path stroke="#183A4F" stroke-linecap="round" d="M319.71 129.478l14.577-8.432"/><path stroke="#183A4F" d="M341.254 118.188c0 1.026-.568 1.858-1.269 1.858-.7 0-1.267-.832-1.267-1.858 0-1.026.567-1.858 1.267-1.858.701 0 1.27.832 1.27 1.858z"/><path stroke="#183A4F" stroke-dasharray="4.004,4.004,4.004" d="M120.795 301.678l150.688-138.845L120.795 31.5C70.375 31.5 29.5 91.981 29.5 166.59c0 74.607 40.874 135.088 91.294 135.088z"/><path fill="#F6F9FB" d="M410.642 171.414l-63.051 36.403c-4.19 2.419-7.586-.15-7.586-5.736v-51.177c0-5.586 3.397-12.076 7.586-14.495l63.05-36.402c4.19-2.419 7.588.149 7.588 5.735v51.177c0 5.586-3.397 12.076-7.587 14.495"/><path stroke="#183A4F" d="M410.642 171.414l-63.051 36.403c-4.19 2.419-7.586-.15-7.586-5.736v-51.177c0-5.586 3.397-12.076 7.586-14.495l63.05-36.402c4.19-2.419 7.588.149 7.588 5.735v51.177c0 5.586-3.397 12.076-7.587 14.495z"/><path fill="#F6F9FB" d="M410.642 269.334l-63.051 36.402c-4.19 2.42-7.586-.149-7.586-5.735v-51.178c0-5.586 3.397-12.075 7.586-14.494l63.05-36.402c4.19-2.419 7.588.148 7.588 5.735v51.177c0 5.586-3.397 12.076-7.587 14.495"/><path stroke="#183A4F" d="M410.642 269.334l-63.051 36.402c-4.19 2.42-7.586-.149-7.586-5.735v-51.178c0-5.586 3.397-12.075 7.586-14.494l63.05-36.402c4.19-2.419 7.588.148 7.588 5.735v51.177c0 5.586-3.397 12.076-7.587 14.495z"/><path fill="#F6F9FB" d="M318.482 264.294l-63.051 36.402c-4.19 2.42-7.586-.149-7.586-5.735v-51.177c0-5.587 3.397-12.076 7.586-14.495l63.05-36.402c4.19-2.419 7.588.148 7.588 5.735V249.8c0 5.586-3.397 12.076-7.587 14.495"/><path stroke="#183A4F" d="M318.482 264.294l-63.051 36.402c-4.19 2.42-7.586-.149-7.586-5.735v-51.177c0-5.587 3.397-12.076 7.586-14.495l63.05-36.402c4.19-2.419 7.588.148 7.588 5.735V249.8c0 5.586-3.397 12.076-7.587 14.495z"/><path fill="#F6F9FB" d="M414.962 174.294l-63.05 36.402c-4.19 2.42-7.587-.149-7.587-5.735v-51.177c0-5.586 3.397-12.076 7.586-14.495l63.051-36.402c4.19-2.42 7.586.148 7.586 5.735V159.8c0 5.586-3.397 12.076-7.586 14.495"/><path stroke="#183A4F" d="M414.962 174.294l-63.05 36.402c-4.19 2.42-7.587-.149-7.587-5.735v-51.177c0-5.586 3.397-12.076 7.586-14.495l63.051-36.402c4.19-2.42 7.586.148 7.586 5.735V159.8c0 5.586-3.397 12.076-7.586 14.495z"/><path fill="#F6F9FB" d="M414.962 272.214l-63.05 36.402c-4.19 2.42-7.587-.149-7.587-5.735v-51.177c0-5.586 3.397-12.076 7.586-14.495l63.051-36.402c4.19-2.419 7.586.148 7.586 5.735v51.177c0 5.586-3.397 12.076-7.586 14.495"/><path stroke="#183A4F" d="M414.962 272.214l-63.05 36.402c-4.19 2.42-7.587-.149-7.587-5.735v-51.177c0-5.586 3.397-12.076 7.586-14.495l63.051-36.402c4.19-2.419 7.586.148 7.586 5.735v51.177c0 5.586-3.397 12.076-7.586 14.495z"/><path fill="#F6F9FB" d="M322.802 267.174l-63.051 36.402c-4.189 2.42-7.586-.149-7.586-5.735v-51.177c0-5.586 3.397-12.076 7.586-14.495l63.051-36.402c4.189-2.419 7.586.148 7.586 5.735v51.177c0 5.586-3.397 12.076-7.586 14.495"/><path stroke="#183A4F" d="M322.802 267.174l-63.051 36.402c-4.189 2.42-7.586-.149-7.586-5.735v-51.177c0-5.586 3.397-12.076 7.586-14.495l63.051-36.402c4.189-2.419 7.586.148 7.586 5.735v51.177c0 5.586-3.397 12.076-7.586 14.495z"/><path stroke="#183A4F" d="M266.458 289.107l50.75-29.361v-46.524m-.001 46.523v-46.523m-6.48 50.124v-46.524m-6.48 50.124v-46.523m-6.48 50.122v-46.523m-6.48 50.124v-46.523m-6.48 50.122v-46.523m-6.48 50.124v-46.524m-6.48 50.124v-46.523"/><path stroke="#183A4F" stroke-linecap="round" d="M269.81 282.68s4.57-15.243 7.52-21.179c6.48-13.047 21.1-29.242 32.899-36.052"/><path stroke="#183A4F" stroke-linecap="round" d="M311.21 224.887c0 .796-.484 1.72-1.08 2.063-.597.345-1.08-.02-1.08-.816 0-.795.483-1.719 1.08-2.063.596-.345 1.08.021 1.08.816zm-6.382 4.513c0 .795-.483 1.719-1.08 2.063-.597.344-1.08-.021-1.08-.817 0-.795.483-1.72 1.08-2.063.597-.344 1.08.02 1.08.817zm-6.148 5.236c0 .796-.483 1.72-1.08 2.063-.596.345-1.08-.02-1.08-.816 0-.795.484-1.719 1.08-2.063.597-.344 1.08.021 1.08.816zm-6.543 6.563c0 .796-.483 1.72-1.08 2.064-.597.344-1.08-.021-1.08-.817 0-.795.483-1.72 1.08-2.063.597-.344 1.08.02 1.08.816zm-6.251 7.744c0 .795-.483 1.719-1.079 2.063-.597.345-1.08-.021-1.08-.816 0-.795.483-1.72 1.08-2.063.596-.345 1.079.02 1.079.816zm-6.314 9.467c0 .797-.483 1.72-1.08 2.064-.597.345-1.08-.02-1.08-.816 0-.795.484-1.72 1.08-2.063.598-.345 1.08.02 1.08.816zm-6.396 16.267c0 .796-.484 1.72-1.08 2.064-.597.344-1.081-.02-1.081-.816 0-.796.484-1.72 1.081-2.064.596-.344 1.08.021 1.08.816z"/><path fill="#F6F9FB" d="M179.408 197.9l-62.535 36.104V133.949l62.535-36.105z"/><path stroke="#183A4F" d="M179.408 197.9l-62.535 36.104V133.949l62.535-36.105z"/><path stroke="#183A4F" d="M173.696 131.311l-13.84 7.99v-22.914l13.84-7.99z"/><path fill="#183A4F" d="M169.325 118.656c0 1.747-1.062 3.776-2.372 4.532-1.31.757-2.372-.047-2.372-1.793 0-1.747 1.062-3.776 2.372-4.532 1.31-.757 2.372.046 2.372 1.793"/><path stroke="#183A4F" d="M169.325 118.656c0 1.747-1.062 3.776-2.372 4.532-1.31.757-2.372-.047-2.372-1.793 0-1.747 1.062-3.776 2.372-4.532 1.31-.757 2.372.046 2.372 1.793z"/><path fill="#183A4F" d="M172 129.608c0-3.841-2.334-5.607-5.215-3.943-2.881 1.663-5.216 6.125-5.216 9.966L172 129.608z"/><path stroke="#183A4F" d="M172 129.608c0-3.841-2.334-5.607-5.215-3.943-2.881 1.663-5.216 6.125-5.216 9.966L172 129.608z"/><path fill="#FFF" d="M154.975 142.12l-32.64 18.844v-22.913l32.64-18.845z"/><path stroke="#183A4F" d="M154.975 142.12l-32.64 18.844v-22.913l32.64-18.845zm18.721 8.24l-51.361 29.653v-14.447l51.36-29.653zm0 44.884l-51.361 29.653v-40.114l51.36-29.653z"/><path fill="#FFF" d="M122.335 144.458l32.64-18.845"/><path stroke="#183A4F" d="M122.335 144.458l32.64-18.845"/><path fill="#FFF" d="M122.335 151.328l32.64-18.845"/><path stroke="#183A4F" d="M122.335 151.328l32.64-18.845"/><path fill="#FFF" d="M138.655 135.208v6.697"/><path stroke="#183A4F" d="M138.655 135.208v6.697m-8.745 38.504v40.29m-7.575-31.028l51.36-29.653m-51.36 37.482l51.36-29.654m-51.36 37.482l51.36-29.653m-51.36 37.481l51.36-29.653m-51.36 37.48l51.36-29.653m-51.36 33.567l51.36-29.653m-51.36-22.504l51.36-29.653"/><path stroke="#183A4F" stroke-linecap="round" d="M126.028 154.219l26.167-15.108m-18.464 47.939l26.167-15.108m-26.167 22.891l26.167-15.107m-26.167 22.892l26.167-15.107M133.731 210.4l26.167-15.106m-34.327-27.884l45.593-26.324m-45.593-1.666l26.167-15.107m-26.167 21.829l10.18-5.877m5.974-3.449l10.18-5.877"/><path stroke="#183A4F" d="M360.707 280.21l47.632-27.552m-54.831-4.848l26.868-15.565m18.491-104.675l15.342-8.904m-15.342 14.664l15.342-8.905M363.5 280.018s1.245-17.741 4.048-19.359c2.803-1.619 2.491 24.717 5.604 22.92 3.115-1.797 4.644-35.615 8.485-37.832 4.048-2.336 3.487 27.369 7.916 24.812 5.051-2.917 5.502-48.981 5.502-48.981m2.741-1.583v54.98"/><path fill="#FFF" d="M397.217 148.524c0 16.18-9.838 34.978-21.974 41.983-12.135 7.007-21.972-.43-21.972-16.61 0-16.181 9.837-34.978 21.972-41.985 12.136-7.006 21.974.43 21.974 16.612"/><path stroke="#183A4F" d="M397.217 148.524c0 16.18-9.838 34.978-21.974 41.983-12.135 7.007-21.972-.43-21.972-16.61 0-16.181 9.837-34.978 21.972-41.985 12.136-7.006 21.974.43 21.974 16.612z"/><path fill="#FFF" d="M375.243 131.912v29.298"/><path stroke="#183A4F" d="M375.243 131.912v29.298"/><path fill="#FFF" d="M375.243 161.21l18.142 5.83"/><path stroke="#183A4F" d="M375.243 161.21l18.142 5.83"/><path fill="#FFF" d="M375.243 161.21l-8.566 31.933"/><path stroke="#183A4F" d="M375.243 161.21l-8.566 31.933"/><path fill="#FFF" d="M375.243 161.21l-21.973 12.687"/><path stroke="#183A4F" d="M375.243 161.21l-21.973 12.687"/><path fill="#FFF" d="M375.243 161.21l-14.646-13.377"/><path stroke="#183A4F" d="M375.243 161.21l-14.646-13.377"/><path fill="#FFF" d="M387.096 147.193l-.767-2.644-.015.009-.767 3.529 1.549-.894zm.229.818l-2.01 1.16-.407 1.814-.85.492 1.926-8.177.673-.387 1.924 5.95-.846.49-.41-1.342z"/><path stroke="#183A4F" d="M387.096 147.193l-.767-2.644-.015.009-.767 3.529 1.549-.894zm.229.818l-2.01 1.16-.407 1.814-.85.492 1.926-8.177.673-.387 1.924 5.95-.846.49-.41-1.342z"/><path fill="#FFF" d="M377.222 177.069v2.123l1.235-.713c.297-.18.516-.413.655-.702.137-.287.206-.572.206-.856 0-.291-.07-.501-.206-.626-.14-.125-.358-.104-.655.06l-1.235.714zm0-2.973v2.019l1.159-.668a1.58 1.58 0 00.647-.68c.14-.268.21-.544.21-.828 0-.285-.07-.485-.21-.601-.138-.103-.355-.074-.647.088l-1.16.67zm-.803-.491l2.053-1.186c.52-.294.912-.346 1.173-.154.265.193.396.574.396 1.142.006.287-.048.597-.157.924a2.624 2.624 0 01-.24.496c-.104.18-.231.363-.383.547v.02c.288-.066.506.009.653.228.139.233.206.534.206.903a3.533 3.533 0 01-.427 1.695c-.28.534-.626.919-1.043 1.16l-2.231 1.288v-7.063z"/><path stroke="#183A4F" d="M377.222 177.069v2.123l1.235-.713c.297-.18.516-.413.655-.702.137-.287.206-.572.206-.856 0-.291-.07-.501-.206-.626-.14-.125-.358-.104-.655.06l-1.235.714zm0-2.973v2.019l1.159-.668a1.58 1.58 0 00.647-.68c.14-.268.21-.544.21-.828 0-.285-.07-.485-.21-.601-.138-.103-.355-.074-.647.088l-1.16.67zm-.803-.491l2.053-1.186c.52-.294.912-.346 1.173-.154.265.193.396.574.396 1.142.006.287-.048.597-.157.924a2.624 2.624 0 01-.24.496c-.104.18-.231.363-.383.547v.02c.288-.066.506.009.653.228.139.233.206.534.206.903a3.533 3.533 0 01-.427 1.695c-.28.534-.626.919-1.043 1.16l-2.231 1.288v-7.063z"/><path fill="#FFF" d="M365.319 178.693c-.116.723-.34 1.355-.666 1.896-.336.542-.734.947-1.194 1.213-.417.228-.765.293-1.044.196a.969.969 0 01-.617-.507 3.342 3.342 0 01-.106-.244 1.844 1.844 0 01-.073-.336c-.035-.263-.054-.798-.054-1.606 0-.821.019-1.38.054-1.677.04-.301.098-.56.179-.777.128-.401.333-.81.617-1.23.279-.42.627-.752 1.044-.998.509-.29.926-.328 1.249-.116.323.214.525.592.61 1.134l-.85.49c-.065-.245-.184-.418-.356-.521-.18-.086-.397-.06-.653.083a1.89 1.89 0 00-.49.43 2.726 2.726 0 00-.333.557 2.358 2.358 0 00-.207.706c-.038.275-.057.759-.057 1.453 0 .695.019 1.153.057 1.376.036.228.104.385.207.478a.483.483 0 00.334.159c.136.029.299-.011.489-.12.45-.26.786-.776 1.009-1.548l.85-.491z"/><path stroke="#183A4F" d="M365.319 178.693c-.116.723-.34 1.355-.666 1.896-.336.542-.734.947-1.194 1.213-.417.228-.765.293-1.044.196a.969.969 0 01-.617-.507 3.342 3.342 0 01-.106-.244 1.844 1.844 0 01-.073-.336c-.035-.263-.054-.798-.054-1.606 0-.821.019-1.38.054-1.677.04-.301.098-.56.179-.777.128-.401.333-.81.617-1.23.279-.42.627-.752 1.044-.998.509-.29.926-.328 1.249-.116.323.214.525.592.61 1.134l-.85.49c-.065-.245-.184-.418-.356-.521-.18-.086-.397-.06-.653.083a1.89 1.89 0 00-.49.43 2.726 2.726 0 00-.333.557 2.358 2.358 0 00-.207.706c-.038.275-.057.759-.057 1.453 0 .695.019 1.153.057 1.376.036.228.104.385.207.478a.483.483 0 00.334.159c.136.029.299-.011.489-.12.45-.26.786-.776 1.009-1.548l.85-.491z"/><path fill="#FFF" d="M361.4 163.545l.96-.554c.45-.26.778-.654.98-1.182.09-.204.148-.43.172-.675.022-.242.033-.678.033-1.308 0-.614-.011-1.046-.033-1.3-.028-.247-.098-.421-.207-.524-.222-.281-.537-.297-.944-.05l-.96.554v5.039zm-.802-5.587l1.854-1.07c.718-.41 1.254-.322 1.612.26.129.19.21.42.243.692.029.276.04.77.04 1.484 0 .76-.02 1.3-.06 1.625a3.37 3.37 0 01-.087.457c-.042.14-.091.29-.15.449a4.845 4.845 0 01-.646 1.197c-.274.39-.61.7-1.007.93l-1.8 1.038v-7.062z"/><path stroke="#183A4F" d="M361.4 163.545l.96-.554c.45-.26.778-.654.98-1.182.09-.204.148-.43.172-.675.022-.242.033-.678.033-1.308 0-.614-.011-1.046-.033-1.3-.028-.247-.098-.421-.207-.524-.222-.281-.537-.297-.944-.05l-.96.554v5.039zm-.802-5.587l1.854-1.07c.718-.41 1.254-.322 1.612.26.129.19.21.42.243.692.029.276.04.77.04 1.484 0 .76-.02 1.3-.06 1.625a3.37 3.37 0 01-.087.457c-.042.14-.091.29-.15.449a4.845 4.845 0 01-.646 1.197c-.274.39-.61.7-1.007.93l-1.8 1.038v-7.062z"/><path fill="#FFF" d="M368.479 142.415l3.384-1.952v1.012l-2.58 1.49v2.015l2.202-1.272v.95l-2.202 1.272v2.072l2.58-1.489v1.012l-3.384 1.954z"/><path stroke="#183A4F" d="M368.479 142.415l3.384-1.952v1.012l-2.58 1.49v2.015l2.202-1.272v.95l-2.202 1.272v2.072l2.58-1.489v1.012l-3.384 1.954z"/><path fill="#F6F9FB" d="M397.217 148.524c0 16.18-9.838 34.978-21.974 41.983-12.135 7.007-21.972-.43-21.972-16.61 0-16.181 9.837-34.978 21.972-41.985 12.136-7.006 21.974.43 21.974 16.612"/><path stroke="#183A4F" d="M397.217 148.524c0 16.18-9.838 34.978-21.974 41.983-12.135 7.007-21.972-.43-21.972-16.61 0-16.181 9.837-34.978 21.972-41.985 12.136-7.006 21.974.43 21.974 16.612z"/><path fill="#FFF" d="M375.243 131.912v29.298"/><path stroke="#183A4F" d="M375.243 131.912v29.298"/><path fill="#FFF" d="M375.243 161.21l18.142 5.83"/><path stroke="#183A4F" d="M375.243 161.21l18.142 5.83"/><path fill="#FFF" d="M375.243 161.21l-8.566 31.933"/><path stroke="#183A4F" d="M375.243 161.21l-8.566 31.933"/><path fill="#FFF" d="M375.243 161.21l-21.973 12.687"/><path stroke="#183A4F" d="M375.243 161.21l-21.973 12.687"/><path fill="#FFF" d="M375.243 161.21l-14.646-13.377"/><path stroke="#183A4F" d="M375.243 161.21l-14.646-13.377"/><path fill="#183A4F" d="M387.096 147.193l-.767-2.644-.015.009-.767 3.529 1.549-.894zm.229.818l-2.01 1.16-.407 1.814-.85.492 1.926-8.177.673-.387 1.924 5.95-.846.49-.41-1.342zm-10.103 29.058v2.123l1.235-.713c.297-.18.516-.413.655-.702.137-.287.206-.572.206-.856 0-.291-.07-.501-.206-.626-.14-.125-.358-.104-.655.06l-1.235.714zm0-2.973v2.019l1.159-.668a1.58 1.58 0 00.647-.68c.14-.268.21-.544.21-.828 0-.285-.07-.485-.21-.601-.138-.103-.355-.074-.647.088l-1.16.67zm-.803-.491l2.053-1.186c.52-.294.912-.346 1.173-.154.265.193.396.574.396 1.142.006.287-.048.597-.157.924a2.624 2.624 0 01-.24.496c-.104.18-.231.363-.383.547v.02c.288-.066.506.009.653.228.139.233.206.534.206.903a3.533 3.533 0 01-.427 1.695c-.28.534-.626.919-1.043 1.16l-2.231 1.288v-7.063zm-11.1 5.088c-.116.723-.34 1.355-.666 1.896-.336.542-.734.947-1.194 1.213-.417.228-.765.293-1.044.196a.969.969 0 01-.617-.507 3.342 3.342 0 01-.106-.244 1.844 1.844 0 01-.073-.336c-.035-.263-.054-.798-.054-1.606 0-.821.019-1.38.054-1.677.04-.301.098-.56.179-.777.128-.401.333-.81.617-1.23.279-.42.627-.752 1.044-.998.509-.29.926-.328 1.249-.116.323.214.525.592.61 1.134l-.85.49c-.065-.245-.184-.418-.356-.521-.18-.086-.397-.06-.653.083a1.89 1.89 0 00-.49.43 2.726 2.726 0 00-.333.557 2.358 2.358 0 00-.207.706c-.038.275-.057.759-.057 1.453 0 .695.019 1.153.057 1.376.036.228.104.385.207.478a.483.483 0 00.334.159c.136.029.299-.011.489-.12.45-.26.786-.776 1.009-1.548l.85-.491zm-3.919-15.148l.96-.554c.45-.26.778-.654.98-1.182.09-.204.148-.43.172-.675.022-.242.033-.678.033-1.308 0-.614-.011-1.046-.033-1.3-.028-.247-.098-.421-.207-.524-.222-.281-.537-.297-.944-.05l-.96.554v5.039zm-.802-5.587l1.854-1.07c.718-.41 1.254-.322 1.612.26.129.19.21.42.243.692.029.276.04.77.04 1.484 0 .76-.02 1.3-.06 1.625a3.37 3.37 0 01-.087.457c-.042.14-.091.29-.15.449a4.845 4.845 0 01-.646 1.197c-.274.39-.61.7-1.007.93l-1.8 1.038v-7.062zm7.881-15.543l3.384-1.952v1.012l-2.58 1.49v2.015l2.202-1.272v.95l-2.202 1.272v2.072l2.58-1.489v1.012l-3.384 1.954z"/></g></svg>