<svg xmlns="http://www.w3.org/2000/svg" width="285" height="25" viewBox="0 0 285 25"><path fill="#26323F" d="M17.986 15.948c0 4.983-3.828 8.25-8.646 8.25-4.818 0-8.646-3.267-8.646-8.25V.504h4.587v15.279c0 2.706 1.584 4.323 4.059 4.323s4.092-1.617 4.092-4.323V.504h4.554v15.444zm20.295 1.122c0 4.554-3.795 7.128-8.712 7.128-3.564 0-6.27-.759-8.58-3.102l2.97-2.97c1.485 1.485 3.498 1.98 5.676 1.98 2.706 0 4.158-1.023 4.158-2.904 0-.825-.231-1.518-.726-1.98-.462-.429-.99-.66-2.079-.825l-2.838-.396c-2.013-.297-3.498-.924-4.554-1.947-1.122-1.122-1.683-2.64-1.683-4.62 0-4.191 3.102-7.128 8.184-7.128 3.234 0 5.577.792 7.59 2.739l-2.904 2.871c-1.485-1.419-3.267-1.617-4.818-1.617-2.442 0-3.63 1.353-3.63 2.97 0 .594.198 1.221.693 1.683.462.429 1.221.792 2.178.924l2.772.396c2.145.297 3.498.891 4.488 1.815 1.254 1.188 1.815 2.904 1.815 4.983zm8.91 6.93h-4.587V.504h4.587V24zm23.463 0h-4.092L57.256 9.579V24h-4.587V.504h4.092l9.306 14.388V.504h4.587V24zm22.209-9.636c0 3.399-.594 5.445-2.244 7.161-1.881 1.947-4.125 2.673-6.633 2.673-2.574 0-4.686-.924-6.336-2.574-2.376-2.376-2.31-5.313-2.31-9.372s-.066-6.996 2.31-9.372C79.3 1.23 81.346.306 83.986.306c5.445 0 8.217 3.564 8.844 7.524h-4.62c-.528-2.211-1.881-3.432-4.224-3.432-1.254 0-2.277.495-2.937 1.254-.891.99-1.122 2.079-1.122 6.6 0 4.521.231 5.643 1.122 6.633.66.759 1.683 1.221 2.937 1.221 1.386 0 2.508-.495 3.267-1.32.759-.858 1.056-1.914 1.056-3.135v-.891h-4.323v-3.828h8.877v3.432zm28.809 2.409c-.825 4.917-4.29 7.425-8.646 7.425-2.574 0-4.686-.924-6.336-2.574-2.376-2.376-2.31-5.313-2.31-9.372s-.066-6.996 2.31-9.372c1.65-1.65 3.762-2.574 6.336-2.574 4.389 0 7.821 2.508 8.646 7.425h-4.653c-.462-1.881-1.65-3.333-3.96-3.333-1.254 0-2.277.462-2.937 1.221-.891.99-1.155 2.112-1.155 6.633s.264 5.643 1.155 6.633c.66.759 1.683 1.221 2.937 1.221 2.31 0 3.498-1.452 3.96-3.333h4.653zm20.526-4.521c0 4.059.033 6.996-2.343 9.372-1.65 1.65-3.663 2.574-6.336 2.574-2.673 0-4.719-.924-6.369-2.574-2.376-2.376-2.31-5.313-2.31-9.372s-.066-6.996 2.31-9.372c1.65-1.65 3.696-2.574 6.369-2.574 2.673 0 4.686.924 6.336 2.574 2.376 2.376 2.343 5.313 2.343 9.372zm-4.587 0c0-4.521-.264-5.61-1.155-6.6-.66-.759-1.683-1.254-2.937-1.254-1.254 0-2.31.495-2.97 1.254-.891.99-1.122 2.079-1.122 6.6 0 4.521.231 5.61 1.122 6.6.66.759 1.716 1.254 2.97 1.254 1.254 0 2.277-.495 2.937-1.254.891-.99 1.155-2.079 1.155-6.6zM168.169 24h-4.587V10.305l-4.488 8.91h-3.102l-4.521-8.91V24h-4.587V.504h4.521l6.138 12.705L163.648.504h4.521V24zM190.51 7.83c0 3.993-2.904 7.326-7.755 7.326h-4.521V24h-4.587V.504h9.108c4.851 0 7.755 3.333 7.755 7.326zm-4.587 0c0-1.914-1.32-3.234-3.399-3.234h-4.29v6.435h4.29c2.079 0 3.399-1.287 3.399-3.201zM212.521 24h-4.785l-1.386-4.158h-8.349L196.582 24h-4.785L200.344.504h3.597L212.521 24zm-7.392-8.019l-2.871-8.547-2.97 8.547h5.841zM233.41 24h-4.092l-9.306-14.421V24h-4.587V.504h4.092l9.306 14.388V.504h4.587V24zm10.065 0h-4.587V.504h4.587V24zm20.955 0h-15.477V.504h15.477v4.092h-10.89v5.511h9.273v4.092h-9.273v5.709h10.89V24zm19.668-6.93c0 4.554-3.795 7.128-8.712 7.128-3.564 0-6.27-.759-8.58-3.102l2.97-2.97c1.485 1.485 3.498 1.98 5.676 1.98 2.706 0 4.158-1.023 4.158-2.904 0-.825-.231-1.518-.726-1.98-.462-.429-.99-.66-2.079-.825l-2.838-.396c-2.013-.297-3.498-.924-4.554-1.947-1.122-1.122-1.683-2.64-1.683-4.62 0-4.191 3.102-7.128 8.184-7.128 3.234 0 5.577.792 7.59 2.739L280.6 5.916c-1.485-1.419-3.267-1.617-4.818-1.617-2.442 0-3.63 1.353-3.63 2.97 0 .594.198 1.221.693 1.683.462.429 1.221.792 2.178.924l2.772.396c2.145.297 3.498.891 4.488 1.815 1.254 1.188 1.815 2.904 1.815 4.983z"/></svg>